<?xml version="1.0" standalone="no"?><!DOCTYPE svg PUBLIC "-//W3C//DTD SVG 1.1//EN" "http://www.w3.org/Graphics/SVG/1.1/DTD/svg11.dtd"><svg class="icon" width="200px" height="200.00px" viewBox="0 0 1024 1024" version="1.1" xmlns="http://www.w3.org/2000/svg"><path fill="#515151" d="M326.7 880c-15.3 0-30.5-4.6-43.7-13.6-23.9-16.2-36.4-45.2-31.7-73.7l29.4-175.5-126.6-126.5c-20.1-19.9-27.1-50-18-76.7 0-0.1 0.1-0.2 0.1-0.2 9.5-26.8 32.8-46 61-50l172.2-25.6 74.8-155.3c12.6-26.1 39.7-42.9 69-43h0.3c29 0 55.9 16.8 68.7 42.8 0 0.1 0.1 0.1 0.1 0.2l74.8 155.3 172.2 25.6c28.1 4.1 51.5 23.2 61 50 0 0.1 0.1 0.2 0.1 0.3 9.2 27 2.3 56.3-17.9 76.6L745.7 617.1l29.4 175.4c4.7 28.6-7.7 57.6-31.7 73.9-23.9 16.3-54.7 18-80.3 4.3L513.2 790l-149.7 80.6c-11.6 6.3-24.2 9.4-36.8 9.4zM183.3 430.3c-2.9 8.7-0.6 18.4 5.9 24.9l0.1 0.1 135.8 135.6c5.7 5.7 8.3 13.8 7 21.8l-31.5 188.1c-1.5 9.3 2.6 18.9 10.5 24.2 0.1 0 0.1 0.1 0.2 0.1 8.5 5.8 19.4 6.4 28.5 1.5l161.6-87c7.4-4 16.3-4 23.7 0l161.6 87c9.1 4.8 20 4.3 28.6-1.6 7.9-5.4 12-14.9 10.5-24.3l-31.5-188c-1.3-8 1.3-16.1 7-21.8l135.9-135.6c6.6-6.6 8.9-16.2 6-25-3.3-9.2-11.3-15.7-21-17.1h-0.1l-185.3-27.6c-8.2-1.2-15.3-6.4-18.8-13.9l-80.5-167.1c-4.5-9-13.8-14.8-23.8-14.8h-0.3c-10.3 0-19.7 5.8-24.1 14.7l-80.6 167.2c-3.6 7.5-10.7 12.7-18.8 13.9l-185.4 27.6h-0.1c-9.8 1.4-17.8 7.9-21.1 17.1z" /></svg>